<?xml version="1.0" standalone="no"?>
<!DOCTYPE svg PUBLIC "-//W3C//DTD SVG 20010904//EN"
 "http://www.w3.org/TR/2001/REC-SVG-20010904/DTD/svg10.dtd">
<svg version="1.0" xmlns="http://www.w3.org/2000/svg"
 width="700.000000pt" height="700.000000pt" viewBox="0 0 700.000000 700.000000"
 preserveAspectRatio="xMidYMid meet">
<metadata>
Created by potrace 1.11, written by Peter Selinger 2001-2013
</metadata>
<g transform="translate(0.000000,700.000000) scale(0.100000,-0.100000)"
fill="#000000" stroke="none">
<path d="M2842 6984 c-7 -8 -8 -14 -3 -14 10 0 25 19 20 25 -2 1 -10 -3 -17
-11z"/>
<path d="M2875 6990 c-3 -5 -1 -10 4 -10 6 0 11 5 11 10 0 6 -2 10 -4 10 -3 0
-8 -4 -11 -10z"/>
<path d="M2928 6981 c3 -8 1 -12 -4 -8 -6 3 -16 2 -24 -3 -12 -8 -11 -12 8
-25 12 -9 20 -20 18 -24 -3 -4 1 -8 9 -8 8 0 15 4 15 9 0 4 -4 8 -10 8 -5 0
-10 5 -10 11 0 5 5 7 12 3 7 -4 8 -3 4 4 -4 6 -13 9 -21 5 -8 -3 -15 0 -15 5
0 6 9 9 20 7 11 -2 22 1 25 6 4 5 11 7 16 4 5 -3 6 0 4 7 -3 8 -16 14 -29 14
-17 0 -22 -4 -18 -15z"/>
<path d="M2984 6980 c1 -8 -5 -15 -13 -15 -8 0 -15 -8 -17 -18 -1 -12 2 -17
11 -14 7 3 18 0 24 -6 9 -9 11 -8 6 6 -5 11 -2 17 6 17 11 0 11 3 -1 10 -11 7
-11 10 -2 10 7 0 10 5 6 12 -5 7 -3 8 5 4 7 -5 10 -11 7 -14 -3 -3 -1 -11 5
-19 14 -16 43 -18 33 -1 -5 7 -3 8 6 3 10 -6 9 -11 -5 -22 -13 -9 -21 -10 -26
-2 -5 8 -9 8 -14 -1 -4 -7 -1 -16 6 -21 8 -5 10 -9 4 -9 -5 0 -17 4 -25 9 -8
6 -19 7 -24 3 -20 -12 -66 -11 -66 2 0 7 -11 18 -25 24 -14 6 -25 8 -25 3 0
-5 9 -11 20 -14 11 -3 20 -11 20 -17 0 -9 -4 -9 -17 1 -9 8 -14 9 -10 2 5 -8
-12 -11 -65 -11 -40 0 -119 -1 -175 -2 -94 -2 -103 -4 -103 -22 0 -11 -5 -16
-11 -13 -6 4 -8 14 -4 24 5 12 4 13 -6 4 -9 -9 -9 -16 -1 -25 7 -9 7 -19 2
-28 -14 -22 -12 -32 4 -18 8 7 12 16 9 20 -2 4 3 5 12 2 13 -5 12 -9 -6 -25
-16 -14 -26 -16 -35 -8 -8 7 -14 7 -19 -1 -5 -8 -11 -8 -21 1 -8 6 -14 8 -14
3 0 -5 -33 -9 -73 -8 -44 0 -81 -4 -94 -13 -19 -11 -22 -11 -17 2 11 28 -4 15
-20 -17 -15 -28 -15 -33 0 -49 14 -16 12 -17 -34 -20 -28 -2 -48 0 -45 5 4 5
0 5 -8 0 -8 -5 -35 -9 -61 -10 -27 -1 -50 -3 -53 -4 -13 -6 -31 -5 -42 2 -6 5
-14 5 -18 -2 -3 -6 -10 -8 -14 -6 -4 3 -8 -1 -8 -9 0 -18 13 -20 20 -2 4 9 6
9 6 -1 1 -7 -6 -15 -14 -18 -13 -5 -13 -8 1 -21 13 -13 17 -13 39 1 14 9 25
19 25 21 0 3 -11 -2 -25 -11 -14 -9 -25 -14 -25 -11 0 2 11 12 24 20 21 14 26
14 42 1 18 -14 18 -14 0 -7 -15 5 -17 3 -10 -8 18 -29 11 -35 -40 -35 -128 -2
-185 -8 -174 -21 15 -19 -2 -16 -26 4 -12 10 -17 14 -13 8 4 -5 -3 -15 -15
-22 -13 -7 -18 -12 -11 -13 6 0 10 -10 9 -23 -2 -14 2 -24 10 -24 6 0 10 6 7
14 -3 9 0 11 10 7 9 -3 14 -11 11 -18 -3 -9 -28 -14 -71 -15 -36 -1 -70 -4
-74 -7 -5 -3 -7 -23 -5 -44 2 -22 1 -39 -2 -38 -4 0 -9 -1 -12 -2 -16 -6 -60
-4 -60 2 0 5 -9 3 -19 -4 -16 -10 -18 -15 -8 -28 10 -13 10 -13 -4 -3 -9 7
-20 9 -24 5 -5 -4 -5 -1 0 7 6 11 2 13 -19 7 -18 -4 -25 -3 -21 3 3 6 0 9 -7
6 -8 -3 -14 -24 -16 -50 l-2 -44 35 16 c19 9 32 20 29 25 -3 5 -14 2 -23 -6
-10 -9 -21 -16 -24 -16 -14 0 -6 27 12 44 17 15 19 15 25 1 3 -9 9 -14 14 -11
4 2 14 1 22 -5 12 -7 12 -9 1 -9 -11 0 -11 -3 0 -17 13 -17 13 -17 -5 -3 -18
14 -19 13 -13 -4 6 -16 5 -17 -8 -6 -8 7 -15 8 -15 3 0 -11 -8 -13 -80 -16
-30 -1 -57 -5 -61 -9 -3 -4 -4 -26 -3 -48 2 -43 2 -43 -65 -40 -40 2 -43 0
-38 -19 3 -12 1 -19 -4 -15 -5 3 -9 0 -9 -5 0 -6 4 -11 9 -11 5 0 8 -8 6 -17
-2 -10 -4 -21 -4 -24 -1 -3 -20 -6 -43 -7 -23 -1 -44 -5 -47 -10 -3 -4 -12 -7
-18 -7 -7 0 -13 -4 -12 -9 2 -18 -32 -28 -48 -14 -12 9 -15 9 -9 1 4 -7 16
-18 28 -24 12 -6 18 -7 14 -1 -7 12 13 21 32 15 6 -3 12 -14 12 -26 -1 -22 -1
-22 -16 -2 -16 20 -16 20 -10 -1 6 -18 3 -21 -19 -17 -14 3 -22 10 -18 16 3 5
1 7 -5 3 -5 -3 -13 0 -16 6 -3 7 -3 2 0 -11 5 -17 3 -21 -7 -16 -9 6 -11 2 -7
-13 4 -15 2 -22 -8 -22 -7 0 -12 6 -10 13 1 6 1 9 -1 4 -3 -4 -10 -4 -16 0 -6
4 -23 8 -37 9 -24 2 -24 2 -4 -8 12 -5 27 -21 35 -34 7 -13 17 -24 22 -24 6 0
3 8 -6 18 -23 25 -22 39 1 19 10 -10 21 -15 24 -12 3 3 3 -5 1 -19 -6 -29 -40
-32 -49 -4 -5 17 -35 20 -50 5 -4 -3 3 -5 14 -2 12 2 23 -3 26 -11 4 -11 0
-14 -17 -12 -17 2 -22 -2 -21 -19 0 -13 -4 -23 -10 -23 -6 0 -4 -5 4 -10 13
-8 12 -10 -2 -10 -10 0 -18 -5 -18 -11 0 -5 5 -7 10 -4 5 3 10 -1 10 -9 0 -22
-27 -20 -33 2 -4 16 -5 16 -6 0 0 -10 -8 -18 -16 -18 -8 0 -12 6 -9 14 7 18
-12 30 -22 15 -4 -8 -3 -9 4 -5 7 4 12 3 12 -3 0 -5 -6 -14 -13 -18 -13 -9
-19 -53 -7 -53 11 0 0 -39 -12 -46 -6 -4 -14 0 -19 7 -7 11 -11 12 -17 1 -10
-14 -33 -13 -44 3 -4 6 -8 -18 -8 -52 0 -54 -2 -62 -17 -56 -11 5 -14 3 -8 -6
6 -10 3 -11 -11 -3 -11 5 -25 7 -31 5 -7 -3 -13 0 -13 7 0 6 -4 9 -8 6 -5 -3
-7 -26 -5 -51 3 -28 0 -52 -8 -61 -10 -13 -10 -17 2 -25 8 -5 9 -9 3 -9 -6 0
-10 -11 -9 -25 2 -14 -2 -28 -7 -32 -7 -3 -8 -1 -4 5 9 15 1 15 -25 1 -19 -10
-20 -9 -8 13 12 23 12 23 -10 4 -11 -11 -21 -15 -21 -10 0 5 -4 3 -8 -4 -5 -7
-8 -32 -7 -55 1 -36 -3 -45 -22 -54 -13 -6 -21 -8 -19 -4 3 4 -3 12 -13 18
-14 9 -18 8 -18 -3 0 -7 5 -10 10 -7 6 3 7 1 3 -6 -6 -9 -11 -9 -23 0 -13 11
-14 6 -12 -42 1 -37 -1 -53 -9 -51 -7 1 -12 -3 -12 -9 0 -5 -4 -7 -10 -4 -6 3
-7 -1 -4 -10 5 -11 2 -14 -9 -9 -9 3 -14 13 -10 22 4 13 3 14 -5 3 -5 -7 -7
-23 -5 -35 5 -21 5 -21 -10 -1 -8 11 -19 17 -23 12 -4 -4 -1 -7 7 -7 11 0 11
-2 -1 -10 -13 -8 -13 -10 3 -11 30 -3 35 -4 43 -11 4 -5 2 -8 -5 -8 -7 0 -9
-4 -6 -10 3 -5 2 -10 -3 -10 -6 0 -12 7 -16 15 -3 8 -11 15 -18 14 -10 0 -10
-2 0 -6 6 -2 12 -9 12 -14 0 -6 -4 -7 -10 -4 -6 4 -10 -15 -10 -51 0 -52 -2
-56 -21 -51 -16 4 -18 3 -8 -9 6 -7 14 -12 18 -10 4 3 7 -4 7 -14 0 -10 -3
-17 -7 -14 -4 2 -9 1 -12 -3 -2 -5 -3 -3 -2 2 2 6 -6 21 -16 34 -11 13 -19 18
-19 12 0 -6 -6 -8 -14 -5 -11 4 -14 -4 -11 -41 1 -25 -1 -47 -4 -49 -4 -3 -6
-29 -6 -60 1 -30 -3 -52 -7 -50 -11 7 -10 -4 2 -27 9 -15 7 -19 -7 -19 -15 0
-15 -1 2 -14 18 -13 18 -14 -3 -20 -12 -4 -32 -4 -43 -1 -14 5 -19 3 -15 -3 3
-6 1 -14 -5 -18 -8 -4 -9 -3 -5 4 4 7 1 12 -6 12 -9 0 -13 -10 -12 -27 1 -18
6 -27 15 -25 9 2 7 -4 -5 -17 -13 -14 -15 -21 -6 -21 8 0 9 -4 3 -12 -5 -7 -9
-29 -8 -48 0 -42 -22 -65 -45 -47 -13 10 -13 10 -3 -3 7 -10 8 -21 3 -30 -5
-8 -6 -18 -4 -22 3 -4 1 -8 -4 -8 -16 0 -21 12 -12 29 5 10 5 23 -1 32 -7 12
-9 12 -9 -1 0 -13 -1 -13 -10 0 -5 8 -10 11 -10 5 0 -5 4 -17 10 -25 6 -9 5
-20 -3 -29 -9 -12 -9 -13 1 -7 7 4 14 1 18 -7 6 -17 28 -17 45 0 8 8 8 13 0
17 -6 4 -11 12 -11 18 0 6 7 5 18 -3 15 -13 16 -12 4 2 -10 14 -10 18 1 22 10
4 13 -2 9 -21 -2 -15 -4 -40 -4 -56 -1 -22 -3 -25 -10 -13 -5 9 -15 14 -23 10
-9 -3 -23 1 -32 8 -12 10 -15 10 -9 2 4 -7 3 -13 -2 -13 -9 0 -12 -56 -14
-242 0 -34 -5 -48 -14 -48 -8 0 -14 -4 -14 -10 0 -5 6 -7 13 -4 10 4 13 -15
13 -85 0 -49 -3 -88 -8 -85 -4 3 -8 -1 -8 -8 0 -10 -3 -9 -10 2 -5 9 -5 19 1
26 6 8 5 14 -6 17 -8 4 -14 3 -14 -1 1 -4 0 -11 -1 -17 -1 -5 -3 -16 -4 -24 0
-8 -7 -15 -14 -17 -7 -1 -8 0 -2 3 17 8 11 23 -7 17 -15 -5 -16 -4 -3 5 13 9
13 11 0 11 -12 1 -11 3 3 11 9 5 17 15 17 21 0 7 -4 7 -13 0 -10 -8 -13 -6
-14 11 0 12 1 16 4 9 4 -10 8 -10 19 -1 8 6 11 16 7 22 -4 6 -1 7 6 2 10 -6
11 -3 2 14 -7 12 -9 26 -6 32 4 5 8 22 10 37 2 23 1 24 -10 9 -9 -13 -15 -14
-25 -4 -10 9 -10 7 0 -7 13 -17 13 -19 0 -14 -11 4 -16 0 -16 -13 0 -16 2 -17
17 -3 15 14 16 12 14 -18 -2 -18 -4 -36 -4 -40 -1 -5 -6 -7 -13 -5 -16 3 -19
-115 -4 -125 8 -5 7 -8 -1 -8 -10 0 -12 -102 -12 -450 1 -316 4 -448 11 -444
7 5 8 2 2 -7 -4 -8 -9 -43 -10 -79 0 -36 1 -59 3 -52 3 6 9 12 14 12 4 0 6 -6
4 -12 -3 -7 0 -20 5 -28 8 -12 13 -13 30 -2 11 7 20 8 20 3 0 -6 -7 -14 -15
-18 -9 -6 -11 -13 -5 -23 8 -13 11 -13 22 -1 10 10 10 12 1 7 -14 -8 -18 6 -5
18 8 9 11 56 2 53 -3 -1 -6 1 -7 6 -2 4 -1 7 2 7 3 0 9 0 13 0 5 0 9 -87 10
-192 2 -196 6 -233 23 -222 5 3 6 11 2 17 -11 18 -12 38 -2 31 5 -3 7 -9 4
-14 -6 -10 7 -20 37 -25 28 -6 35 -19 30 -55 -6 -42 -19 -38 -17 5 1 19 -1 33
-3 30 -3 -2 -13 0 -23 6 -15 7 -17 6 -13 -6 5 -11 2 -13 -10 -9 -9 3 -17 2
-17 -2 -6 -39 -5 -55 4 -61 6 -3 7 -1 3 5 -4 7 -3 12 3 12 5 0 11 -3 14 -7 2
-5 2 -2 0 5 -1 8 3 12 9 9 7 -2 12 -13 10 -23 -2 -12 0 -15 5 -8 4 6 15 9 23
5 11 -4 15 -22 15 -66 0 -46 4 -59 14 -57 12 3 12 0 2 -12 -7 -8 -14 -26 -15
-40 -3 -24 -1 -25 38 -22 23 2 43 4 45 5 2 1 -3 9 -10 19 -12 15 -12 16 2 5 9
-7 15 -25 15 -40 -1 -16 3 -34 8 -40 6 -9 3 -13 -10 -13 -14 0 -16 -3 -6 -9 7
-4 14 -19 14 -32 1 -13 5 -29 10 -36 5 -6 5 -14 -1 -17 -5 -3 -7 -14 -4 -24 5
-19 53 -26 53 -7 0 5 4 4 9 -3 4 -8 12 -13 16 -13 13 2 15 -32 4 -45 -7 -8 -6
-13 3 -16 8 -3 7 -6 -4 -11 -13 -4 -16 -1 -13 14 2 10 0 19 -6 19 -5 0 -9 -5
-9 -11 0 -5 -4 -8 -10 -4 -12 8 -1 35 13 32 7 -1 16 -6 20 -12 5 -6 7 -4 4 5
-2 8 -12 15 -23 15 -10 0 -24 3 -29 7 -6 4 -17 3 -25 -3 -8 -5 -10 -9 -4 -9 6
0 10 -15 10 -32 -1 -32 0 -33 42 -31 l42 1 1 -56 c1 -52 4 -83 7 -106 1 -5 8
-4 15 2 8 7 18 7 27 2 8 -6 13 -10 10 -11 -35 -6 -44 -9 -51 -16 -6 -6 3 -9
20 -9 17 0 28 3 25 7 -2 4 5 14 16 22 11 7 17 17 13 20 -3 4 -1 7 5 7 17 0 15
-27 -3 -34 -8 -3 -12 -12 -9 -21 3 -8 10 -12 15 -9 5 3 9 -18 9 -45 l0 -51 50
0 c28 0 50 -4 50 -10 0 -5 -5 -10 -11 -10 -6 0 -7 -5 -2 -12 12 -21 14 -48 2
-48 -6 0 -3 -7 6 -16 13 -14 14 -19 3 -25 -10 -7 -10 -9 0 -9 7 0 15 6 18 13
2 7 18 13 34 13 25 0 29 -3 24 -19 -4 -14 -3 -17 6 -12 8 5 11 4 6 -3 -3 -6
-2 -14 4 -17 8 -5 7 -11 -1 -21 -6 -8 -7 -14 -2 -14 6 0 9 -22 9 -49 -2 -49
-2 -49 29 -47 51 3 65 -9 65 -59 l0 -45 38 -1 c20 -1 43 0 51 1 9 1 12 -5 8
-19 -7 -27 10 -91 24 -91 6 0 8 4 5 8 -2 4 4 8 15 8 10 0 19 -6 19 -14 0 -7
-4 -11 -9 -7 -5 3 -12 2 -15 -3 -3 -5 2 -9 11 -9 9 0 18 9 21 19 2 10 9 18 14
18 5 0 6 -4 3 -10 -3 -5 -1 -10 6 -10 7 0 4 -7 -7 -15 -12 -10 -14 -13 -3 -10
12 5 15 -2 15 -32 -1 -38 3 -41 39 -27 18 7 18 6 7 -9 -9 -11 -11 -21 -4 -33
6 -11 11 -13 16 -5 4 6 2 11 -3 11 -6 0 -11 5 -11 11 0 6 7 8 15 5 10 -3 19 1
23 12 4 11 9 -3 12 -38 l5 -55 50 2 c35 2 45 -1 35 -7 -10 -7 -11 -10 -2 -10
8 0 12 -12 10 -34 -1 -22 -6 -32 -14 -29 -7 2 -14 1 -17 -4 -6 -9 1 -10 79
-13 l50 -2 -2 -49 c-2 -28 2 -51 8 -55 6 -4 8 -3 5 3 -5 8 15 9 85 4 11 -1 5
-55 -7 -63 -6 -5 -5 -8 3 -8 7 0 11 -4 8 -9 -3 -5 16 -8 44 -8 54 2 51 7 54
-67 1 -30 2 -30 64 -32 69 -3 96 -9 88 -22 -3 -5 1 -9 9 -9 11 0 12 4 4 14 -9
10 -7 13 8 13 17 0 19 -6 16 -45 -5 -49 -6 -48 60 -47 20 1 37 -2 37 -7 0 -4
7 -8 15 -8 8 0 15 5 15 11 0 6 4 5 9 -2 11 -17 21 -17 32 0 7 10 9 10 9 0 0
-7 5 -10 10 -7 5 3 10 1 10 -5 0 -7 -7 -10 -15 -6 -8 3 -15 1 -15 -5 0 -6 -7
-6 -20 1 -14 8 -20 8 -20 0 0 -6 -5 -8 -12 -4 -7 5 -8 3 -3 -6 4 -7 2 -16 -6
-21 -11 -7 -11 -9 -1 -9 7 0 11 -4 7 -9 -3 -5 0 -13 6 -17 7 -4 9 -3 6 3 -4 6
0 14 9 17 24 9 28 7 14 -9 -17 -20 -5 -19 20 2 14 13 17 20 8 30 -8 10 -6 13
6 13 22 0 21 -36 -1 -50 -17 -11 -17 -11 -1 -6 10 3 18 1 18 -3 0 -5 19 -8 42
-6 54 4 67 -2 61 -25 -4 -15 -1 -18 17 -15 14 3 20 0 17 -8 -2 -7 -11 -11 -20
-9 -10 2 -15 -4 -14 -15 1 -16 12 -19 91 -20 181 -4 182 -4 195 -25 7 -12 8
-17 2 -13 -6 3 -11 2 -11 -4 0 -5 5 -13 10 -16 7 -4 7 -12 0 -24 -9 -17 -3
-19 88 -21 53 -1 102 -2 109 -3 14 0 13 -39 -2 -50 -10 -9 5 -5 42 10 14 5 13
3 -3 -14 -10 -11 -22 -18 -26 -16 -4 2 -9 0 -12 -5 -2 -4 19 -8 47 -8 29 0 65
-2 81 -5 18 -2 31 1 34 9 2 7 -2 11 -8 10 -7 -2 -14 3 -15 10 -2 7 -1 8 2 2 2
-5 9 -7 15 -4 5 3 12 -3 14 -13 5 -16 14 -19 67 -18 34 0 65 -4 69 -10 5 -7 8
-6 8 1 0 12 60 11 79 0 6 -4 11 -2 11 4 0 6 5 8 12 4 6 -4 35 -7 65 -6 29 0
53 -4 53 -9 0 -6 5 -7 10 -4 6 4 8 10 6 14 -3 4 1 8 9 8 8 0 12 -4 10 -8 -3
-3 2 -12 9 -19 15 -12 18 -53 4 -44 -4 3 -8 0 -8 -5 0 -6 -5 -11 -12 -11 -6 0
-3 10 8 22 11 13 13 18 4 13 -8 -5 -21 -10 -30 -11 -8 -1 -21 -3 -29 -5 -7 -2
-15 4 -16 15 -3 14 -1 16 8 7 16 -16 32 -14 18 2 -6 8 -9 16 -6 18 2 3 -4 5
-15 5 -10 0 -17 -3 -14 -7 2 -4 -5 -11 -17 -14 -11 -4 -18 -10 -14 -13 3 -3
-5 -12 -17 -19 -13 -7 -17 -12 -10 -13 6 0 21 9 33 21 11 11 23 18 26 15 4 -3
3 -6 -2 -6 -4 0 -2 -7 5 -15 11 -13 10 -14 -4 -9 -9 3 -16 2 -16 -3 0 -14 33
-12 48 4 7 7 19 13 25 13 7 0 5 -6 -4 -13 -14 -10 2 -13 92 -14 60 -1 107 2
104 7 -3 5 -1 12 5 15 6 4 9 1 8 -7 -4 -19 546 -25 570 -6 11 9 13 9 9 1 -6
-9 9 -12 60 -10 50 1 67 5 65 15 -1 8 2 11 8 7 6 -3 8 -10 5 -15 -2 -4 49 -7
114 -6 93 1 117 4 113 14 -3 10 -8 10 -15 3 -17 -17 -31 -13 -17 5 11 12 10
18 -5 32 -13 13 -19 14 -22 4 -3 -6 -8 -10 -12 -8 -4 3 -7 -4 -7 -14 0 -10 5
-16 11 -13 5 4 7 2 2 -2 -9 -10 -48 -15 -42 -5 2 4 -2 7 -10 7 -8 0 -11 -5 -8
-10 3 -6 1 -7 -4 -4 -6 4 -10 25 -10 46 1 32 4 38 16 32 20 -9 32 -8 51 4 13
8 13 7 0 -10 -14 -17 -13 -18 3 -12 10 4 21 7 23 7 3 0 3 3 1 8 -3 4 12 7 32
7 23 0 38 -5 38 -12 0 -7 -4 -10 -9 -7 -4 3 -5 -3 -1 -13 6 -15 8 -14 17 7 9
20 19 25 49 26 20 0 37 -3 37 -8 0 -5 6 -6 13 -1 6 4 48 8 93 9 44 0 86 4 92
8 6 3 13 2 17 -4 4 -6 11 -7 17 -4 6 4 27 8 47 9 20 1 36 5 36 11 0 5 4 16 10
24 8 13 7 13 -8 1 -12 -9 -17 -10 -17 -2 0 6 7 14 16 18 12 4 13 7 3 14 -24
14 -6 18 109 21 111 2 113 3 92 20 -17 14 -19 18 -6 18 19 0 21 11 4 28 -9 9
-9 12 1 12 7 0 9 5 5 11 -4 7 -1 10 7 7 8 -3 13 -14 11 -24 -2 -15 -1 -16 7
-4 5 8 8 17 5 21 -2 4 5 7 16 6 11 -1 20 -7 20 -14 0 -7 -6 -12 -12 -11 -7 2
-13 -7 -14 -20 -1 -19 -1 -19 3 -2 2 11 9 18 14 14 6 -3 13 3 16 15 5 18 13
21 67 22 99 3 110 4 123 12 6 4 13 1 16 -5 2 -7 3 8 3 33 -1 33 -5 45 -13 42
-7 -3 -11 -9 -8 -13 6 -9 -28 -41 -47 -44 -7 -1 -20 -6 -28 -11 -13 -8 -13 -6
-2 8 8 9 11 20 8 25 -3 6 1 15 9 22 8 7 13 16 10 20 -6 10 21 7 31 -3 4 -3 14
-3 23 2 9 4 40 7 69 6 56 -1 53 -5 56 64 1 27 16 58 16 34 0 -13 32 -12 42 2
5 6 8 5 8 -2 0 -7 5 -13 11 -13 5 0 8 4 5 9 -3 5 22 8 57 7 45 -1 64 2 64 11
0 7 -4 10 -9 7 -4 -3 -8 2 -8 11 0 9 4 13 10 10 6 -3 7 1 4 9 -3 9 -11 13 -18
9 -7 -4 -7 -2 1 7 8 8 17 10 26 4 7 -5 5 -2 -5 8 -17 15 -15 16 35 18 28 0 72
2 97 3 l45 2 2 43 c1 25 -2 40 -8 37 -5 -4 -6 -11 -3 -17 4 -6 -1 -6 -14 1
-27 15 -30 14 -28 -7 0 -11 -6 -16 -17 -16 -10 1 -16 -3 -14 -10 3 -6 10 -10
16 -9 6 2 11 -2 11 -7 0 -14 -16 -12 -28 3 -14 16 -9 52 7 52 6 0 15 5 19 10
9 13 35 18 27 5 -3 -5 -2 -10 4 -10 5 0 13 5 16 10 3 6 28 10 55 10 54 0 71
14 44 36 -17 12 -17 13 -1 8 18 -6 24 10 7 21 -5 3 -7 11 -4 18 3 8 24 12 59
11 30 0 52 3 50 7 -7 10 20 19 31 11 5 -4 5 -3 1 3 -4 5 -13 10 -20 10 -7 0
-12 13 -12 30 1 28 4 30 44 33 32 2 41 0 35 -9 -4 -8 -3 -10 4 -5 7 4 12 12
12 18 0 6 8 17 18 25 16 14 16 14 -1 9 -15 -5 -17 0 -15 28 1 26 6 33 22 32
12 -1 30 -9 40 -18 11 -10 22 -16 25 -13 2 3 -4 12 -15 20 -18 14 -18 14 9 15
15 0 27 4 27 10 0 5 6 7 14 4 8 -3 19 3 26 15 6 12 15 21 21 21 5 0 2 -12 -7
-27 l-16 -28 19 24 c11 13 19 33 18 45 -1 25 13 48 26 40 5 -3 9 -1 9 5 0 5
-8 11 -17 13 -15 3 -15 4 1 21 14 14 15 17 3 17 -11 0 -13 7 -9 22 3 12 7 17
10 10 2 -7 9 -9 15 -5 17 10 47 11 41 1 -3 -4 -1 -8 5 -8 16 0 25 22 23 58 -2
20 1 31 7 28 5 -4 13 -1 17 5 4 7 3 9 -4 5 -6 -3 -14 -1 -17 5 -5 7 8 10 41 8
l49 -3 3 50 c3 54 4 55 83 55 9 0 16 7 16 15 0 8 -4 14 -9 14 -4 0 -8 5 -8 11
0 5 4 8 9 5 4 -3 8 6 7 21 -1 16 5 27 14 28 8 2 23 6 33 10 10 4 17 3 17 -4 0
-6 6 -8 14 -5 15 6 19 51 5 60 -5 3 -8 0 -7 -8 2 -8 -4 -12 -16 -10 -12 2 -16
-1 -10 -9 4 -7 3 -10 -3 -6 -6 4 -14 0 -17 -9 -6 -17 -26 -10 -25 9 0 8 2 7 6
-1 4 -10 11 -5 24 15 10 15 19 24 19 19 0 -5 7 -3 15 4 8 6 18 10 22 7 4 -3 8
14 8 36 0 23 4 48 9 55 5 7 4 12 -2 12 -6 0 -9 6 -7 13 4 8 20 11 48 9 l43 -4
3 59 c2 32 4 77 4 101 0 28 3 39 8 30 6 -9 12 -9 17 -3 8 12 42 13 60 2 12 -8
16 32 14 141 0 17 5 32 10 32 7 0 6 5 -1 13 -9 11 -5 14 17 12 15 -1 30 3 33
8 3 5 9 1 12 -8 5 -10 3 -14 -5 -9 -7 4 -8 3 -4 -4 4 -7 -1 -10 -13 -7 -15 3
-19 -1 -16 -17 4 -17 2 -18 -13 -7 -15 12 -15 12 1 -7 9 -11 17 -25 17 -30 0
-5 -4 -3 -9 5 -6 9 -11 10 -15 2 -8 -12 -7 -12 42 -16 18 -1 35 2 39 8 3 6 1
7 -5 3 -7 -4 -12 -2 -12 3 0 6 5 11 11 11 5 0 7 5 4 10 -4 6 -16 8 -28 4 -19
-6 -20 -5 -8 9 7 9 16 16 19 15 19 -2 23 4 12 17 -7 8 -9 15 -4 15 5 0 9 30 9
68 0 37 4 70 8 73 5 4 4 16 -2 28 -11 19 -9 21 22 21 18 0 39 6 46 12 11 10
13 10 7 1 -4 -7 -2 -13 3 -13 12 0 12 2 14 65 2 40 30 91 71 127 10 10 15 18
10 18 -5 0 -4 4 1 8 6 4 31 51 58 104 l47 98 0 834 0 834 -49 98 c-28 54 -48
101 -45 106 3 4 -3 8 -13 8 -17 1 -17 1 0 14 16 12 16 14 2 20 -9 3 -13 2 -10
-4 15 -24 -13 -5 -39 26 -25 30 -29 45 -32 101 -2 61 -5 67 -25 70 -13 2 -27
9 -31 16 -5 9 -8 9 -8 0 0 -9 -14 -11 -40 -3 -3 1 5 5 18 10 22 10 31 30 11
30 -5 0 -7 -4 -4 -10 3 -5 2 -10 -4 -10 -17 0 -21 17 -7 29 7 6 20 10 27 8 8
-2 11 -2 7 0 -5 3 -8 12 -8 21 0 13 -2 13 -13 -3 -10 -12 -16 -14 -21 -7 -4 7
-1 12 6 12 8 0 9 3 3 8 -6 4 -11 23 -11 42 -1 19 -4 52 -7 73 -2 20 -1 40 4
42 13 8 -2 37 -16 31 -7 -2 -17 0 -22 5 -5 5 -17 3 -29 -7 -10 -8 -13 -12 -5
-8 10 5 12 3 5 -7 -13 -21 -14 -40 -2 -33 7 5 8 2 3 -6 -6 -9 -4 -11 5 -5 9 5
11 4 6 -3 -9 -16 7 -15 22 0 7 7 12 10 13 7 0 -2 2 -12 4 -22 3 -13 0 -15 -9
-8 -9 7 -16 7 -24 -1 -9 -9 -12 -9 -12 3 0 12 -2 12 -10 -1 -12 -18 -11 -25
-20 153 -2 37 -8 61 -17 64 -7 3 -10 9 -7 14 3 5 9 7 14 4 4 -3 7 2 6 11 -1 9
-11 21 -21 26 -13 8 -16 7 -11 -1 9 -13 -4 -14 -24 -1 -12 8 -12 10 -1 10 8 0
11 3 8 6 -4 4 -13 1 -22 -6 -22 -18 -27 -8 -29 52 l-1 53 -40 0 c-43 0 -60 12
-43 32 7 9 7 13 0 13 -6 0 -9 7 -6 15 4 8 1 21 -4 28 -6 7 -7 19 -3 26 12 18
1 52 -13 44 -6 -3 -6 0 2 8 20 21 14 26 -30 24 -46 -2 -75 19 -57 42 7 7 6 14
-1 18 -8 5 -8 11 1 21 9 11 8 14 -2 15 -8 1 -21 2 -29 3 -8 0 -20 -6 -27 -14
-10 -12 -11 -11 -7 10 2 14 2 19 -2 13 -13 -29 -24 -10 -24 41 0 49 -2 54 -20
51 -11 -2 -22 1 -26 7 -4 7 -9 6 -14 -1 -15 -25 -40 0 -40 41 0 28 3 37 13 32
9 -5 9 -4 0 6 -6 6 -33 13 -60 14 -50 1 -48 -1 -44 52 0 8 5 13 10 9 15 -9 25
15 12 28 -9 9 -11 8 -5 -6 5 -13 2 -16 -10 -11 -8 3 -14 11 -13 16 1 6 -18 11
-45 10 -50 0 -57 5 -36 26 16 16 33 15 20 0 -8 -10 -4 -13 14 -14 13 -1 24 2
24 8 0 5 4 7 8 4 5 -3 9 2 9 10 0 13 -2 13 -15 0 -13 -12 -18 -11 -39 12 -21
22 -24 24 -21 8 1 -10 -3 -21 -10 -23 -9 -4 -10 1 -2 22 12 32 6 45 -20 45
-13 0 -17 5 -14 15 4 8 9 13 13 11 4 -3 7 6 7 19 0 14 -2 22 -5 20 -2 -3 -10
0 -18 6 -8 7 -13 8 -13 1 0 -5 7 -12 15 -16 22 -8 -11 -61 -39 -61 -29 0 -31
52 -3 75 16 14 17 17 4 17 -9 0 -14 -4 -11 -9 3 -4 1 -8 -4 -8 -6 0 -12 6 -15
14 -4 10 -18 13 -46 11 -35 -3 -41 0 -41 16 0 10 0 22 0 27 0 4 4 7 9 7 5 0
13 4 18 9 4 5 3 7 -2 3 -6 -3 -17 -1 -25 4 -13 8 -13 10 0 19 11 7 5 10 -25
11 -22 1 -49 0 -61 0 -19 -2 -21 3 -19 43 2 29 -2 46 -9 47 -6 1 -28 2 -48 2
-35 0 -43 7 -39 31 1 5 -5 6 -14 2 -9 -3 -20 -6 -23 -6 -4 0 0 -5 8 -11 12 -8
10 -9 -9 -4 -17 5 -21 4 -16 -5 6 -9 3 -9 -12 -1 -11 6 -24 7 -28 3 -5 -4 -5
-2 -1 5 4 7 14 9 24 6 15 -6 16 -5 2 13 -8 10 -19 23 -25 27 -6 5 -2 6 9 3 14
-5 17 -2 12 10 -3 8 -6 19 -6 22 0 4 -5 0 -10 -8 -8 -12 -10 -11 -10 8 0 19
-3 21 -19 12 -14 -7 -22 -7 -27 1 -5 8 -9 7 -14 -2 -6 -9 -12 -9 -24 4 -19 19
-21 31 -3 21 9 -6 9 -5 0 7 -7 9 -11 25 -8 37 4 21 0 22 -61 22 -38 0 -64 4
-64 11 0 5 4 8 8 5 5 -3 9 1 9 9 0 8 -4 12 -7 10 -4 -3 -7 7 -7 21 0 18 4 24
15 19 12 -5 13 -3 2 10 -11 13 -15 13 -21 3 -7 -10 -9 -10 -9 2 0 13 -1 13
-10 0 -7 -10 -12 -12 -17 -4 -7 10 -69 16 -180 18 -36 0 -42 3 -41 21 0 11 -3
28 -7 38 -4 10 -3 17 4 17 6 0 10 -5 9 -12 -2 -7 3 -13 10 -14 6 -1 15 -2 19
-3 4 0 -2 -8 -13 -16 -13 -11 -14 -14 -4 -13 8 2 18 8 22 13 5 6 8 4 8 -5 0
-13 2 -13 11 0 10 13 10 13 6 -1 -3 -9 1 -16 8 -16 10 0 11 5 4 18 -5 11 -5
20 0 23 5 4 8 14 6 24 -2 9 -4 19 -4 21 -1 2 -10 -4 -21 -14 -17 -16 -23 -14
-22 5 0 3 -30 6 -66 6 -135 2 -143 3 -137 17 4 6 0 4 -8 -5 -15 -19 -27 -14
-27 9 0 8 5 11 12 7 6 -4 8 -3 5 3 -4 6 0 14 9 17 22 8 26 8 19 -3 -6 -11 33
-36 43 -27 3 3 0 6 -7 6 -7 0 -9 4 -6 10 3 6 -1 7 -10 4 -10 -4 -15 -2 -13 7
3 15 -15 16 -45 4 -13 -6 -16 -3 -11 9 3 9 11 13 18 9 6 -4 5 1 -3 10 -11 13
-17 14 -35 5 -18 -10 -19 -9 -9 3 10 12 8 15 -8 15 -10 0 -19 -4 -19 -8 0 -4
-10 -4 -22 0 -13 5 -57 8 -100 8 -42 -1 -74 3 -71 7 2 4 -8 5 -24 1 -16 -4
-25 -3 -20 2 5 5 13 9 17 9 5 0 16 9 25 20 15 20 16 20 13 0 -2 -14 3 -20 19
-21 18 -1 21 2 13 17 -7 12 -7 20 0 24 5 3 10 1 10 -6 0 -7 3 -10 6 -7 3 4 0
16 -6 28 -9 18 -14 20 -20 9 -5 -7 -6 -17 -4 -21 7 -11 -4 -10 -26 2 -17 9
-18 8 -13 -7 6 -16 5 -16 -11 -4 -16 13 -16 16 -3 26 16 12 -65 16 -375 18
-129 2 -145 4 -135 17 7 8 17 18 22 22 6 5 5 8 -3 8 -7 0 -12 6 -11 13 1 6 1
17 0 22 -2 15 -44 16 -53 2 -5 -8 -8 -9 -8 -1 0 9 -112 12 -415 12 -274 1
-415 -2 -415 -9 0 -6 4 -8 9 -4 5 3 12 1 15 -4 10 -15 -25 -6 -35 10 -8 12
-10 12 -19 -1 -5 -8 -10 -10 -10 -3 0 7 -15 10 -38 10 -28 -2 -39 -6 -38 -17z
m66 0 c0 -5 -5 -10 -11 -10 -5 0 -7 5 -4 10 3 6 8 10 11 10 2 0 4 -4 4 -10z
m858 -26 c-3 -14 -5 -12 -10 9 -3 19 -2 25 4 19 6 -6 8 -18 6 -28z m72 20 c0
-2 -7 -4 -15 -4 -8 0 -15 4 -15 10 0 5 7 7 15 4 8 -4 15 -8 15 -10z m-890 -14
c0 -5 -2 -10 -4 -10 -3 0 -8 5 -11 10 -3 6 -1 10 4 10 6 0 11 -4 11 -10z m720
6 c0 -2 -7 -7 -16 -10 -8 -3 -12 -2 -9 4 6 10 25 14 25 6z m152 -20 c12 1 15
-3 10 -14 -4 -10 -7 -12 -10 -4 -2 7 -8 10 -12 7 -5 -3 -14 5 -20 17 -9 20 -9
21 2 7 7 -9 21 -15 30 -13z m-817 -5 c3 -5 2 -12 -3 -15 -5 -3 -9 1 -9 9 0 17
3 19 12 6z m45 3 c0 -8 -19 -13 -24 -6 -3 5 1 9 9 9 8 0 15 -2 15 -3z m-106
-19 c-10 -8 -23 -15 -28 -15 -6 0 -1 7 10 15 10 8 23 15 28 15 6 0 1 -7 -10
-15z m826 -1 c0 -8 -19 -13 -24 -6 -3 5 1 9 9 9 8 0 15 -2 15 -3z m-1320 -49
c0 -8 -2 -15 -4 -15 -2 0 -6 7 -10 15 -3 8 -1 15 4 15 6 0 10 -7 10 -15z m37
-5 c-1 -21 -10 -18 -13 5 -1 8 2 15 6 15 5 0 8 -9 7 -20z m1781 -5 c-3 -3 -9
2 -12 12 -6 14 -5 15 5 6 7 -7 10 -15 7 -18z m55 2 c4 3 7 4 7 0 0 -18 -21
-14 -30 5 -10 21 -10 21 3 6 8 -10 17 -15 20 -11z m-1893 -7 c0 -5 -8 -10 -17
-10 -15 0 -16 2 -3 10 19 12 20 12 20 0z m1930 -18 c0 -4 -11 -8 -26 -8 -23
-2 -24 -1 -7 11 17 13 33 11 33 -3z m-1885 -2 c3 -5 2 -10 -4 -10 -5 0 -13 5
-16 10 -3 6 -2 10 4 10 5 0 13 -4 16 -10z m1935 0 c0 -5 -5 -10 -11 -10 -5 0
-7 5 -4 10 3 6 8 10 11 10 2 0 4 -4 4 -10z m-1962 -25 c-3 -3 -9 2 -12 12 -6
14 -5 15 5 6 7 -7 10 -15 7 -18z m1835 8 c3 -5 -5 -8 -18 -8 -13 0 -21 3 -18
8 2 4 10 7 18 7 8 0 16 -3 18 -7z m-2133 -48 c-6 -8 -8 -20 -4 -27 5 -10 4
-10 -6 -1 -11 10 -11 15 0 28 7 8 15 15 17 15 3 0 0 -7 -7 -15z m36 -10 c1 -8
-5 -20 -14 -27 -15 -11 -15 -11 -6 2 6 8 10 23 8 33 -1 11 0 16 4 13 3 -4 7
-13 8 -21z m2381 -7 c-3 -8 -6 -5 -6 6 -1 11 2 17 5 13 3 -3 4 -12 1 -19z m33
-3 c11 -13 10 -14 -4 -9 -9 3 -16 10 -16 15 0 13 6 11 20 -6z m-2469 -32 c13
-16 12 -17 -3 -4 -10 7 -18 15 -18 17 0 8 8 3 21 -13z m-258 -36 c4 3 7 4 7 1
0 -3 -12 -14 -27 -24 -23 -14 -26 -15 -15 -1 8 9 10 22 6 29 -6 10 -5 11 8 1
8 -7 18 -10 21 -6z m3018 -1 c19 17 22 2 5 -24 -6 -11 -11 -10 -25 2 -10 9
-20 14 -23 11 -2 -3 -5 2 -5 10 0 14 2 14 16 1 13 -14 17 -14 32 0z m-3183
-134 c1 -30 -3 -38 -19 -39 -10 -1 -19 3 -19 8 0 6 5 7 10 4 10 -6 12 0 12 47
1 42 16 23 16 -20z m3352 34 c22 -2 31 -18 18 -33 -7 -9 -7 -13 0 -13 6 0 9
-7 6 -15 -10 -25 -25 -17 -20 10 3 13 0 28 -6 31 -7 5 -8 2 -3 -6 6 -10 4 -12
-8 -7 -11 4 -14 2 -10 -8 3 -8 9 -12 14 -9 5 3 6 -3 2 -12 -5 -13 -8 -14 -11
-5 -4 11 -6 11 -14 0 -7 -11 -8 -9 -6 6 1 11 -1 25 -5 32 -4 6 -2 15 4 19 8 5
9 3 4 -6 -6 -9 -4 -11 5 -5 10 6 9 11 -6 23 -18 14 -18 14 1 7 11 -4 27 -8 35
-9z m-3379 -28 c10 -19 9 -20 -7 -13 -11 4 -24 8 -30 8 -6 0 -11 6 -11 13 0 7
7 10 15 6 11 -4 13 -1 7 8 -5 9 -4 11 3 6 7 -4 17 -17 23 -28z m3819 -294 c0
-8 -19 -13 -24 -6 -3 5 1 9 9 9 8 0 15 -2 15 -3z m-4475 -174 c3 -5 2 -10 -4
-10 -5 0 -13 5 -16 10 -3 6 -2 10 4 10 5 0 13 -4 16 -10z m5219 -604 c-6 -18
-5 -19 9 -8 9 8 18 9 21 4 6 -9 -4 -21 -31 -36 -9 -5 -11 -2 -6 11 6 17 6 17
-14 0 -16 -14 -23 -15 -29 -6 -4 7 -3 10 4 5 6 -3 13 -2 17 4 3 5 1 10 -6 10
-7 0 -9 3 -6 7 4 3 -1 11 -10 18 -13 9 -13 14 -3 20 9 6 11 4 5 -5 -6 -10 -4
-12 9 -7 10 4 20 7 22 7 3 0 2 6 -2 13 -5 8 -2 7 9 -2 12 -9 15 -21 11 -35z
m121 -187 c2 -3 -8 -5 -25 -5 -16 0 -27 3 -25 6 5 8 42 6 50 -1z m-6015 -75
c0 -4 -8 -13 -17 -20 -15 -12 -15 -13 -2 -8 12 4 17 -1 17 -20 0 -19 -6 -26
-19 -26 -11 0 -19 5 -19 11 0 6 6 9 13 6 8 -3 14 1 14 8 0 7 -7 12 -15 11 -8
0 -17 5 -20 13 -3 8 0 11 7 7 6 -4 14 0 17 8 6 16 24 23 24 10z m6107 -7 c17
7 17 6 1 -11 -10 -9 -18 -21 -18 -26 0 -5 -7 -7 -15 -4 -8 4 -12 10 -9 15 3 5
10 6 16 3 7 -4 8 -2 4 5 -6 8 -12 9 -20 2 -7 -6 -16 -8 -19 -4 -4 3 -7 1 -7
-5 0 -13 38 -27 64 -23 10 1 15 -2 12 -8 -8 -13 -66 -10 -66 4 0 6 -4 4 -9 -4
-6 -9 -8 -2 -8 22 1 26 5 33 16 29 10 -4 12 -1 6 7 -6 10 -3 11 13 2 11 -6 29
-8 39 -4z m96 -183 c4 -1 10 -2 13 -3 4 0 1 -7 -5 -14 -6 -8 -9 -16 -6 -18 2
-3 -4 -5 -15 -6 -26 -2 -48 25 -26 33 9 3 13 11 9 17 -4 6 -1 7 8 1 8 -5 17
-9 22 -10z m-6345 -8 c10 -6 10 -11 1 -22 -12 -14 -3 -19 29 -15 15 2 15 -9 1
-29 -9 -13 -10 -12 -5 3 5 16 4 16 -18 1 -29 -18 -40 -7 -41 42 -1 31 7 36 33
20z m6426 -284 c2 -4 -4 -8 -14 -8 -10 0 -16 4 -14 8 3 4 9 8 14 8 5 0 11 -4
14 -8z m-6519 -42 c3 -6 -1 -7 -9 -4 -18 7 -21 14 -7 14 6 0 13 -4 16 -10z
m30 -9 c3 -5 2 -12 -3 -15 -5 -3 -9 1 -9 9 0 17 3 19 12 6z m-120 -180 c3 -5
2 -12 -3 -15 -5 -3 -9 1 -9 9 0 17 3 19 12 6z m-5 -65 c-1 -5 4 -13 12 -18 11
-8 11 -9 0 -6 -8 2 -13 7 -12 12 1 5 -4 13 -12 18 -11 8 -11 9 0 6 8 -2 13 -7
12 -12z m-27 -28 c-6 -7 -9 -21 -7 -31 1 -11 0 -16 -4 -13 -11 12 -11 40 1 48
18 11 21 10 10 -4z m48 -25 c13 -16 12 -17 -3 -4 -10 7 -18 15 -18 17 0 8 8 3
21 -13z m-16 -13 c3 -5 1 -10 -4 -10 -6 0 -11 5 -11 10 0 6 2 10 4 10 3 0 8
-4 11 -10z m-105 -420 c-8 -5 -19 -10 -25 -10 -5 0 -3 5 5 10 8 5 20 10 25 10
6 0 3 -5 -5 -10z m30 -30 c9 -16 8 -18 -5 -14 -8 3 -13 10 -10 14 3 5 -1 11
-7 13 -10 4 -10 6 -1 6 7 1 17 -8 23 -19z m-40 -30 c0 -5 -4 -10 -10 -10 -5 0
-10 5 -10 10 0 6 5 10 10 10 6 0 10 -4 10 -10z m-23 -35 c0 -8 -4 -12 -9 -9
-5 3 -6 10 -3 15 9 13 12 11 12 -6z m15 -777 c-2 -10 -6 -18 -7 -18 -1 0 -5 8
-7 18 -3 11 0 19 7 19 7 0 10 -8 7 -19z m48 12 c0 -5 -4 -10 -10 -10 -5 0 -10
5 -10 10 0 6 5 10 10 10 6 0 10 -4 10 -10z m-33 -32 c-3 -8 -6 -5 -6 6 -1 11
2 17 5 13 3 -3 4 -12 1 -19z m38 -8 c-3 -5 -12 -10 -18 -10 -7 0 -6 4 3 10 19
12 23 12 15 0z m-50 -9 c3 -5 2 -12 -3 -15 -5 -3 -9 1 -9 9 0 17 3 19 12 6z
m23 -23 c-2 -7 4 -13 13 -12 9 1 15 -7 15 -22 0 -12 -2 -22 -5 -22 -21 2 -22
-4 -5 -17 16 -13 16 -14 1 -9 -9 3 -24 1 -32 -6 -13 -11 -13 -14 2 -26 14 -10
15 -15 6 -24 -14 -15 -36 -3 -29 16 3 8 -2 18 -10 21 -15 5 -15 7 0 15 9 5 16
14 16 20 0 7 -4 7 -13 0 -11 -9 -13 -5 -13 18 0 31 23 49 32 25 4 -8 10 -12
16 -9 5 4 5 11 -1 18 -6 7 -8 16 -4 19 10 10 13 8 11 -5z m102 -447 c0 -17
-21 -24 -33 -12 -9 9 -7 10 7 5 13 -5 17 -4 12 4 -4 7 -2 12 3 12 6 0 11 -4
11 -9z m-15 -91 c-3 -5 -2 -10 3 -10 5 0 9 -7 9 -15 0 -14 -2 -14 -15 -1 -13
12 -10 36 4 36 3 0 2 -4 -1 -10z m-29 -27 c-10 -10 -19 5 -10 18 6 11 8 11 12
0 2 -7 1 -15 -2 -18z m161 -178 c0 -8 -4 -12 -9 -9 -5 3 -6 10 -3 15 9 13 12
11 12 -6z m6493 -19 c0 -2 -8 -10 -17 -17 -16 -13 -17 -12 -4 4 13 16 21 21
21 13z m-6450 -267 c0 -5 -4 -9 -8 -9 -5 0 -9 7 -9 15 0 8 4 12 9 9 4 -3 8 -9
8 -15z m5 -29 c4 -6 12 -7 18 -4 7 4 9 3 4 -1 -4 -5 -18 -10 -30 -11 -12 -2
-16 0 -8 3 11 5 11 7 0 14 -9 6 -10 9 -2 9 6 0 15 -5 18 -10z m6358 -7 c-3 -7
-9 -13 -13 -13 -4 0 -10 6 -13 13 -3 7 3 13 13 13 10 0 16 -6 13 -13z m-6272
-132 c-10 -6 -9 -10 4 -14 9 -4 13 -3 10 3 -3 6 -1 10 5 10 6 0 8 5 4 12 -4 7
-3 8 4 4 6 -4 9 -14 6 -24 -3 -9 1 -6 9 7 9 15 17 20 21 13 4 -6 -2 -20 -14
-32 -11 -11 -20 -16 -20 -11 0 10 -19 9 -38 -2 -8 -6 -11 -2 -9 10 4 25 18 46
25 38 4 -3 1 -10 -7 -14z m6044 -131 c3 -5 1 -10 -4 -10 -6 0 -11 5 -11 10 0
6 2 10 4 10 3 0 8 -4 11 -10z m-66 -161 c-8 -5 -22 -6 -31 -3 -13 4 -16 1 -12
-9 7 -20 -8 -28 -26 -15 -12 8 -12 9 3 4 9 -3 17 -1 17 4 0 6 -4 10 -10 10 -5
0 -10 4 -10 8 0 5 19 9 41 9 27 0 37 -2 28 -8z m-5636 -134 c-3 -9 -8 -14 -10
-11 -3 3 -2 9 2 15 9 16 15 13 8 -4z m5219 -344 c11 6 20 4 28 -6 11 -13 10
-18 -6 -30 -10 -8 -23 -15 -27 -15 -5 0 -6 -4 -3 -9 3 -5 -6 -8 -20 -8 -24 0
-24 0 10 25 20 14 34 28 31 30 -3 3 -15 -4 -28 -16 -27 -26 -34 -27 -34 -7 0
8 4 12 9 9 13 -8 10 10 -4 25 -11 11 -9 12 7 3 13 -6 27 -7 37 -1z m-4568
-299 c3 -5 -1 -9 -9 -9 -8 0 -12 4 -9 9 3 4 7 8 9 8 2 0 6 -4 9 -8z m4165 -6
c9 -11 9 -16 -1 -22 -7 -4 -10 -4 -6 1 4 4 3 14 -3 22 -6 7 -9 13 -6 13 2 0
10 -6 16 -14z m-4024 -98 c-1 -10 -4 -21 -8 -24 -10 -10 -9 -26 1 -20 5 3 9
-1 9 -9 0 -11 -4 -12 -13 -4 -8 7 -14 6 -18 -3 -3 -7 -3 -2 0 12 l5 25 -20
-24 c-13 -14 -21 -18 -21 -10 0 12 -2 11 -9 0 -7 -10 -9 -7 -8 12 1 14 5 23
10 20 4 -2 7 0 7 6 0 5 -3 11 -7 14 -5 2 -2 2 6 0 7 -2 11 2 8 10 -3 9 5 13
27 13 25 0 32 -4 31 -18z m3976 -25 c0 -5 2 -16 4 -25 2 -10 -2 -16 -8 -15
-17 3 -26 18 -20 34 5 14 22 18 24 6z m-3716 -196 c11 -11 8 -14 -18 -14 -18
0 -26 2 -19 5 6 2 10 8 6 13 -8 14 16 11 31 -4z m193 -63 c6 -1 12 2 12 7 0 6
6 4 14 -3 11 -11 14 -35 6 -45 -2 -2 -3 -9 -4 -15 -1 -15 -64 -19 -73 -5 -3 6
-2 8 3 4 5 -3 17 1 27 8 14 10 15 15 5 21 -7 5 -16 9 -20 9 -5 0 -8 3 -8 8 0
4 0 12 0 18 0 6 5 7 13 2 6 -4 18 -8 25 -9z m3038 -39 c-3 -20 -13 -28 -37
-32 -17 -3 -16 0 8 22 33 29 32 29 29 10z m-2752 -73 c2 -4 -4 -8 -14 -8 -10
0 -16 4 -14 8 3 4 9 8 14 8 5 0 11 -4 14 -8z m2430 -15 c4 4 4 -1 0 -11 -6
-15 -4 -17 7 -11 8 5 11 4 6 0 -11 -12 -38 -15 -31 -4 3 6 0 18 -8 27 -11 15
-11 15 3 5 9 -7 19 -10 23 -6z m-2443 -34 c13 -16 12 -17 -3 -4 -17 13 -22 21
-14 21 2 0 10 -8 17 -17z m249 -35 c0 -5 6 -6 13 -2 8 6 8 3 -1 -9 -8 -9 -11
-20 -8 -25 3 -6 -1 -15 -9 -22 -9 -8 -15 -8 -15 -2 0 6 6 13 13 15 7 4 8 6 1
6 -6 1 -17 -6 -24 -14 -14 -17 -30 -20 -30 -4 0 5 5 7 10 4 6 -3 10 -3 11 2 0
4 2 18 3 31 2 20 1 21 -15 6 -11 -10 -19 -12 -24 -5 -3 6 -1 11 5 11 6 0 9 3
6 8 -2 4 11 8 30 8 19 0 34 -4 34 -8z m2022 -2 c4 -6 2 -16 -4 -23 -7 -9 -7
-18 3 -30 13 -16 12 -17 -3 -4 -12 9 -18 10 -18 2 0 -6 -5 -11 -11 -11 -5 0
-7 5 -4 11 4 6 -2 5 -13 -2 -25 -15 -42 -4 -22 14 10 10 11 9 5 -3 -5 -8 -4
-12 0 -7 10 9 15 46 6 45 -15 -1 -22 3 -17 10 7 11 70 10 78 -2z m-1922 -16
c0 -5 -4 -10 -10 -10 -5 0 -10 5 -10 10 0 6 5 10 10 10 6 0 10 -4 10 -10z
m1773 -35 c-3 -9 -8 -14 -10 -11 -3 3 -2 9 2 15 9 16 15 13 8 -4z m-433 -46
c0 -5 -4 -9 -8 -9 -5 0 -9 7 -9 15 0 8 4 12 9 9 4 -3 8 -9 8 -15z m-921 -23
c-3 -3 -11 5 -18 17 -13 21 -12 21 5 5 10 -10 16 -20 13 -22z m26 24 c3 -5 1
-10 -4 -10 -6 0 -11 5 -11 10 0 6 2 10 4 10 3 0 8 -4 11 -10z m35 0 c0 -5 -5
-10 -11 -10 -5 0 -7 5 -4 10 3 6 8 10 11 10 2 0 4 -4 4 -10z m40 -20 c0 -5 -2
-10 -4 -10 -3 0 -8 5 -11 10 -3 6 -1 10 4 10 6 0 11 -4 11 -10z m796 -2 c3 -4
1 -15 -6 -25 -10 -16 -10 -16 -5 4 5 18 2 21 -15 18 -11 -2 -18 0 -15 5 6 9
31 8 41 -2z m-841 -27 c-6 -5 -25 10 -25 20 0 5 6 4 14 -3 8 -7 12 -15 11 -17z
m872 7 c-3 -8 -6 -5 -6 6 -1 11 2 17 5 13 3 -3 4 -12 1 -19z m111 -14 c-14
-14 -15 -14 -13 8 3 33 4 33 17 20 10 -9 9 -16 -4 -28z m-283 8 c-3 -3 -11 0
-18 7 -9 10 -8 11 6 5 10 -3 15 -9 12 -12z m61 3 c-1 -8 -5 -17 -8 -21 -5 -4
-4 16 1 34 3 9 9 -1 7 -13z m-797 -11 c4 3 13 0 21 -5 11 -7 9 -8 -9 -6 -14 2
-26 9 -27 16 -1 6 0 7 3 1 2 -5 8 -8 12 -6z m911 -10 c0 -2 -7 -4 -15 -4 -8 0
-15 4 -15 10 0 5 7 7 15 4 8 -4 15 -8 15 -10z"/>
<path d="M6370 5501 c0 -7 -4 -9 -10 -6 -6 4 -7 -1 -3 -11 6 -15 7 -15 15 1 6
9 7 19 4 22 -3 4 -6 1 -6 -6z"/>
<path d="M6664 5019 c-8 -14 14 -19 25 -6 8 10 7 14 -5 14 -8 0 -17 -4 -20 -8z"/>
<path d="M329 5028 c-11 -34 1 -82 15 -59 4 5 2 13 -4 16 -8 5 -8 11 0 20 8 9
8 15 0 20 -5 3 -10 5 -11 3z"/>
<path d="M27 2996 c-9 -24 -9 -28 2 -21 14 8 24 -13 14 -28 -4 -7 4 1 19 18
14 16 24 32 21 35 -2 3 -10 -3 -17 -12 -12 -17 -14 -16 -23 4 -9 20 -10 20
-16 4z"/>
<path d="M1501 644 c-15 -33 -14 -39 4 -24 8 7 12 17 8 24 -4 6 0 5 9 -2 17
-13 32 -3 20 13 -13 19 -29 14 -41 -11z"/>
<path d="M2000 363 c0 -6 5 -15 12 -19 8 -5 6 -11 -7 -20 -16 -12 -16 -13 3
-11 12 0 19 3 17 6 -3 2 -1 9 5 15 5 7 5 17 0 26 -9 13 -10 13 -10 0 0 -13 -1
-13 -10 0 -6 9 -10 10 -10 3z"/>
<path d="M2510 159 c0 -5 5 -7 10 -4 6 3 10 8 10 11 0 2 -4 4 -10 4 -5 0 -10
-5 -10 -11z"/>
<path d="M4520 173 c5 -2 10 -9 10 -14 0 -6 -4 -7 -10 -4 -5 3 -10 1 -10 -5 0
-7 6 -10 13 -7 16 5 16 30 -1 33 -7 1 -8 0 -2 -3z"/>
<path d="M4005 6978 c1 -10 4 -21 8 -24 4 -4 0 -16 -10 -26 -9 -11 -11 -18 -5
-18 7 0 12 6 12 13 0 8 4 7 10 -3 6 -10 10 -11 10 -2 0 6 5 12 11 12 5 0 8 -4
5 -8 -8 -13 62 -8 76 6 8 8 8 12 1 12 -6 0 -13 -6 -16 -12 -2 -7 -8 -10 -12
-6 -12 11 12 35 34 33 11 -1 28 -12 39 -25 14 -18 21 -20 27 -10 5 8 4 11 -3
6 -6 -3 -19 7 -28 24 -10 16 -22 30 -27 30 -4 0 -5 -4 -2 -10 3 -5 2 -10 -4
-10 -5 0 -14 8 -20 17 -14 26 -108 26 -106 1z m97 -3 c4 -5 -2 -20 -14 -32
-16 -17 -25 -20 -34 -12 -7 6 -18 8 -23 4 -7 -3 -8 0 -5 9 3 9 10 13 15 10 16
-9 10 8 -7 20 -12 9 -8 12 23 11 21 0 41 -4 45 -10z"/>
<path d="M4056 6956 c1 -11 3 -23 3 -25 1 -2 8 2 16 9 18 15 15 32 -6 35 -10
2 -15 -4 -13 -19z"/>
<path d="M4174 6979 c-3 -6 -2 -15 3 -20 5 -5 9 -1 10 11 2 22 -2 25 -13 9z"/>
<path d="M2750 6939 c0 -5 5 -7 10 -4 6 3 10 8 10 11 0 2 -4 4 -10 4 -5 0 -10
-5 -10 -11z"/>
<path d="M2810 6939 c0 -5 5 -7 10 -4 6 3 10 8 10 11 0 2 -4 4 -10 4 -5 0 -10
-5 -10 -11z"/>
<path d="M4136 6923 c-6 -14 -5 -15 5 -6 7 7 10 15 7 18 -3 3 -9 -2 -12 -12z"/>
<path d="M2830 6920 c0 -5 5 -10 10 -10 6 0 10 5 10 10 0 6 -4 10 -10 10 -5 0
-10 -4 -10 -10z"/>
<path d="M2444 6880 c0 -13 4 -16 10 -10 7 7 7 13 0 20 -6 6 -10 3 -10 -10z"/>
<path d="M2469 6873 c0 -5 -2 -21 -4 -36 l-4 -29 19 22 c10 12 16 28 13 36 -5
15 -23 19 -24 7z"/>
<path d="M4780 6808 c0 -3 6 -11 14 -17 10 -9 17 -7 27 6 12 16 12 17 -2 6
-12 -10 -18 -10 -27 -1 -7 7 -12 9 -12 6z"/>
<path d="M2217 6793 c-4 -3 -7 -11 -7 -17 0 -6 5 -5 12 2 6 6 9 14 7 17 -3 3
-9 2 -12 -2z"/>
<path d="M4835 6789 c-4 -6 -5 -12 -2 -15 2 -3 7 2 10 11 7 17 1 20 -8 4z"/>
<path d="M2170 6780 c13 -9 7 -14 -12 -11 -4 0 -4 -7 -1 -16 5 -12 3 -14 -7
-8 -9 6 -11 4 -5 -5 6 -10 11 -9 21 4 8 11 14 13 19 7 3 -6 12 -11 18 -11 7 0
6 4 -3 10 -8 5 -11 10 -6 10 5 0 3 7 -4 15 -7 8 -18 15 -24 15 -6 0 -4 -5 4
-10z"/>
<path d="M2005 6634 c-19 -14 -19 -15 2 -11 26 4 38 13 26 20 -4 3 -17 -1 -28
-9z"/>
<path d="M5373 6495 c0 -8 4 -12 9 -9 5 3 6 10 3 15 -9 13 -12 11 -12 -6z"/>
<path d="M1629 6463 c-13 -16 -12 -17 4 -4 16 13 21 21 13 21 -2 0 -10 -8 -17
-17z"/>
<path d="M5537 6405 c-4 -8 -2 -17 3 -20 6 -4 10 3 10 14 0 25 -6 27 -13 6z"/>
<path d="M5484 6380 c2 -38 8 -43 39 -29 23 10 24 13 11 26 -8 8 -12 18 -10
22 3 4 -6 8 -19 9 -19 1 -22 -3 -21 -28z m31 0 c10 -11 16 -20 13 -20 -3 0
-13 9 -23 20 -10 11 -16 20 -13 20 3 0 13 -9 23 -20z"/>
<path d="M1485 6369 c-11 -17 1 -21 15 -4 8 9 8 15 2 15 -6 0 -14 -5 -17 -11z"/>
<path d="M5779 6153 c-13 -16 -12 -17 4 -4 14 11 20 11 35 0 15 -13 16 -12 3
4 -7 9 -17 17 -21 17 -4 0 -14 -8 -21 -17z"/>
<path d="M1200 6140 c-9 -6 -10 -10 -3 -10 6 0 15 5 18 10 8 12 4 12 -15 0z"/>
<path d="M1091 6103 c6 -7 17 -13 23 -12 7 0 6 2 -2 6 -6 2 -10 8 -8 12 3 4
-1 8 -9 8 -11 0 -12 -4 -4 -14z"/>
<path d="M5862 6081 c-7 -4 -4 -11 9 -20 12 -7 18 -8 15 -3 -3 6 -1 12 6 14 8
3 7 6 -3 10 -9 3 -21 3 -27 -1z"/>
<path d="M6015 6020 c3 -5 8 -10 11 -10 2 0 4 5 4 10 0 6 -5 10 -11 10 -5 0
-7 -4 -4 -10z"/>
<path d="M5965 6008 c8 -21 33 -30 51 -20 11 6 9 10 -9 21 -20 13 -21 13 -8
-2 18 -22 3 -22 -21 0 -17 15 -18 15 -13 1z"/>
<path d="M987 5989 c7 -7 15 -10 18 -7 3 3 -2 9 -12 12 -14 6 -15 5 -6 -5z"/>
<path d="M895 5899 c-4 -6 -4 -13 -1 -16 3 -4 6 -1 6 6 0 7 5 9 12 5 7 -4 8
-3 4 4 -9 15 -13 15 -21 1z"/>
<path d="M6094 5895 c-4 -8 -10 -12 -15 -9 -5 3 -9 0 -9 -5 0 -16 20 -13 26 3
3 8 12 12 20 9 8 -3 14 -3 14 0 0 13 -31 15 -36 2z"/>
<path d="M930 5879 c0 -5 5 -7 10 -4 6 3 10 8 10 11 0 2 -4 4 -10 4 -5 0 -10
-5 -10 -11z"/>
<path d="M6094 5858 c-4 -5 -3 -12 0 -15 3 -4 6 -1 6 6 0 7 4 10 9 6 5 -3 12
-2 15 3 3 5 -2 9 -10 9 -8 0 -17 -4 -20 -9z"/>
<path d="M834 5809 c-3 -6 2 -18 12 -27 17 -16 17 -16 5 0 -7 9 -10 22 -6 28
3 5 4 10 1 10 -3 0 -8 -5 -12 -11z"/>
<path d="M6165 5799 c5 -7 52 -6 59 2 3 2 -10 5 -29 5 -18 0 -32 -3 -30 -7z"/>
<path d="M593 5519 c2 -9 0 -24 -6 -34 -7 -13 -6 -16 2 -11 6 4 11 3 11 -3 0
-6 15 0 33 12 46 31 44 56 -6 54 -30 -1 -37 -5 -34 -18z m57 0 c0 -4 -9 -11
-20 -14 -12 -4 -17 -11 -14 -18 4 -7 3 -8 -1 -4 -16 14 -14 36 3 30 9 -4 13
-2 9 4 -3 5 0 10 8 10 8 0 15 -4 15 -8z"/>
<path d="M647 5476 c-4 -10 -1 -13 9 -9 7 3 14 9 14 14 0 14 -17 10 -23 -5z"/>
<path d="M6480 5420 c-9 -6 -10 -10 -3 -10 6 0 15 5 18 10 8 12 4 12 -15 0z"/>
<path d="M6770 4855 c0 -5 5 -17 10 -25 5 -8 10 -10 10 -5 0 6 -5 17 -10 25
-5 8 -10 11 -10 5z"/>
<path d="M219 4839 c-10 -6 -10 -9 -1 -9 22 0 27 -2 40 -12 7 -6 15 -9 18 -6
10 11 -43 36 -57 27z"/>
<path d="M204 4798 c1 -34 2 -34 17 -7 6 13 7 19 1 15 -6 -3 -12 0 -15 6 -2 7
-4 1 -3 -14z"/>
<path d="M6797 4813 c-10 -9 -9 -23 1 -23 5 0 9 7 9 15 0 17 -1 18 -10 8z"/>
<path d="M236 4795 c-3 -9 -2 -14 3 -10 5 3 11 -1 14 -7 2 -7 7 -11 10 -8 3 3
0 13 -8 23 -11 16 -13 16 -19 2z"/>
<path d="M6770 4782 c0 -15 28 -23 36 -9 4 7 4 9 -1 5 -4 -4 -14 -3 -22 3 -8
7 -13 8 -13 1z"/>
<path d="M33 4205 c0 -8 4 -12 9 -9 5 3 6 10 3 15 -9 13 -12 11 -12 -6z"/>
<path d="M66 4134 c-3 -9 -2 -23 3 -32 6 -11 3 -21 -13 -33 -18 -16 -15 -22
10 -18 4 0 11 -5 15 -13 7 -10 9 -8 9 6 0 13 -5 16 -18 12 -15 -5 -15 -5 -1 6
15 13 22 61 7 52 -4 -3 -8 -1 -8 5 0 5 5 11 12 13 8 3 9 6 1 11 -6 4 -14 0
-17 -9z"/>
<path d="M5 4100 c-3 -5 -1 -10 4 -10 6 0 11 5 11 10 0 6 -2 10 -4 10 -3 0 -8
-4 -11 -10z"/>
<path d="M4 2866 c0 -14 6 -22 13 -19 7 3 13 0 13 -6 0 -6 -5 -11 -12 -11 -6
0 -9 -3 -5 -6 3 -3 12 -2 20 3 13 7 12 12 -8 35 -23 26 -23 26 -21 4z"/>
<path d="M46 2803 c-6 -14 -5 -15 5 -6 7 7 10 15 7 18 -3 3 -9 -2 -12 -12z"/>
<path d="M75 2801 c-3 -5 -2 -12 3 -15 5 -3 9 1 9 9 0 17 -3 19 -12 6z"/>
<path d="M30 2776 c0 -2 8 -10 18 -17 15 -13 16 -12 3 4 -13 16 -21 21 -21 13z"/>
<path d="M220 2220 c-9 -6 -10 -10 -3 -10 6 0 15 5 18 10 8 12 4 12 -15 0z"/>
<path d="M6736 2211 c-4 -5 -2 -12 3 -15 5 -4 12 -2 15 3 4 5 2 12 -3 15 -5 4
-12 2 -15 -3z"/>
<path d="M6792 2207 c-12 -15 2 -46 15 -33 4 5 2 11 -5 13 -10 4 -10 8 -1 19
6 8 9 14 6 14 -2 0 -9 -6 -15 -13z"/>
<path d="M230 2200 c-8 -5 -10 -10 -5 -10 6 0 17 5 25 10 8 5 11 10 5 10 -5 0
-17 -5 -25 -10z"/>
<path d="M203 2163 c0 -15 2 -22 4 -15 4 9 8 10 18 2 10 -8 15 -8 21 1 4 7 3
9 -4 5 -6 -3 -17 3 -25 14 -14 20 -14 20 -14 -7z"/>
<path d="M240 2180 c-13 -8 -13 -10 2 -10 9 0 20 5 23 10 8 13 -5 13 -25 0z"/>
<path d="M6746 2175 c-20 -15 -12 -20 23 -16 7 2 10 -2 6 -8 -3 -6 -1 -11 4
-11 16 0 13 20 -4 26 -8 4 -12 10 -9 15 7 12 2 11 -20 -6z"/>
<path d="M6720 2146 c0 -2 7 -7 16 -10 8 -3 12 -2 9 4 -6 10 -25 14 -25 6z"/>
<path d="M6578 1821 c5 -13 3 -14 -9 -4 -10 8 -19 9 -29 2 -12 -8 -11 -9 4 -7
10 2 21 -2 23 -9 3 -7 -3 -11 -14 -9 -13 3 -18 -3 -19 -20 -2 -20 3 -24 25
-23 24 1 24 1 4 7 -15 5 -20 11 -15 20 6 9 13 7 30 -8 26 -24 40 -26 21 -3
-12 14 -12 16 2 11 12 -5 16 -1 15 15 -1 13 -8 21 -15 19 -8 -2 -11 3 -8 11 3
7 -1 14 -8 14 -8 0 -11 -7 -7 -16z m32 -22 c0 -9 -31 -21 -38 -14 -3 3 0 5 7
5 7 0 10 4 7 8 -3 5 1 9 9 9 8 0 15 -4 15 -8z"/>
<path d="M536 1599 c4 -8 30 -6 38 2 3 3 -5 5 -19 5 -13 0 -22 -3 -19 -7z"/>
<path d="M607 1521 c-18 -12 -25 -21 -18 -26 6 -3 9 -11 6 -16 -11 -16 5 -30
23 -20 10 6 24 6 35 -1 13 -7 17 -7 13 0 -3 6 -2 13 4 17 12 7 4 25 -11 25 -6
0 -8 -4 -4 -9 3 -5 1 -13 -5 -16 -6 -4 -10 -3 -9 2 4 21 -3 24 -18 6 -10 -10
-15 -14 -11 -8 4 6 2 17 -5 24 -9 10 -8 11 7 5 13 -5 17 -4 12 4 -3 6 -1 14 5
18 7 4 9 3 5 -4 -3 -6 -2 -13 4 -17 5 -3 10 3 10 14 0 26 -7 26 -43 2z"/>
<path d="M6276 1273 c-6 -14 -5 -15 5 -6 7 7 10 15 7 18 -3 3 -9 -2 -12 -12z"/>
<path d="M815 1241 c-3 -5 -2 -12 3 -15 5 -3 9 1 9 9 0 17 -3 19 -12 6z"/>
<path d="M6199 1238 c-5 -18 -6 -38 -1 -34 7 8 12 36 6 36 -2 0 -4 -1 -5 -2z"/>
<path d="M6159 1213 c-13 -16 -12 -17 4 -4 9 7 17 15 17 17 0 8 -8 3 -21 -13z"/>
<path d="M855 1180 c3 -5 8 -10 11 -10 2 0 4 5 4 10 0 6 -5 10 -11 10 -5 0 -7
-4 -4 -10z"/>
<path d="M6070 1140 c0 -5 5 -10 10 -10 6 0 10 5 10 10 0 6 -4 10 -10 10 -5 0
-10 -4 -10 -10z"/>
<path d="M6108 1123 c7 -3 16 -2 19 1 4 3 -2 6 -13 5 -11 0 -14 -3 -6 -6z"/>
<path d="M928 1113 c6 -2 9 -10 6 -15 -4 -7 -2 -8 5 -4 13 9 5 26 -12 25 -9 0
-8 -2 1 -6z"/>
<path d="M6093 1094 c-3 -8 -3 -18 1 -21 3 -4 6 1 6 10 0 10 5 14 15 11 8 -4
15 -4 15 -1 0 14 -31 15 -37 1z"/>
<path d="M911 1084 c0 -11 3 -14 6 -6 3 7 2 16 -1 19 -3 4 -6 -2 -5 -13z"/>
<path d="M982 1031 c-11 -6 -10 -10 4 -15 16 -6 16 -8 4 -16 -11 -7 -10 -9 7
-8 20 2 22 28 1 28 -5 0 -6 5 -3 10 7 12 4 12 -13 1z"/>
<path d="M1036 999 c-18 -30 -18 -31 1 -21 10 6 19 20 20 31 2 27 1 27 -21
-10z"/>
<path d="M1108 953 c6 -2 10 -9 7 -14 -4 -5 1 -6 10 -3 11 5 14 2 9 -10 -3 -9
-10 -13 -15 -10 -5 3 -6 -2 -2 -12 5 -14 7 -14 18 5 6 12 13 20 16 19 3 -2 -4
5 -14 15 -11 9 -24 17 -31 16 -7 0 -6 -2 2 -6z"/>
<path d="M1077 936 c-3 -8 -2 -18 4 -22 16 -9 22 2 11 21 -8 15 -10 16 -15 1z"/>
<path d="M5857 943 c-4 -3 -7 -11 -7 -17 0 -6 5 -5 12 2 6 6 9 14 7 17 -3 3
-9 2 -12 -2z"/>
<path d="M5882 924 c2 -11 -3 -28 -9 -36 -10 -12 -10 -15 2 -15 7 0 14 3 13 6
-2 20 4 22 15 6 11 -14 16 -15 22 -5 5 8 4 11 -2 7 -6 -4 -18 8 -27 26 -11 22
-16 25 -14 11z"/>
<path d="M5900 926 c0 -2 8 -10 18 -17 15 -13 16 -12 3 4 -13 16 -21 21 -21
13z"/>
<path d="M1096 883 c-6 -14 -5 -15 5 -6 7 7 10 15 7 18 -3 3 -9 -2 -12 -12z"/>
<path d="M1200 820 c-9 -6 -10 -10 -3 -10 6 0 15 5 18 10 8 12 4 12 -15 0z"/>
<path d="M1235 823 c3 -3 0 -12 -7 -20 -6 -7 -8 -16 -4 -20 3 -3 6 -1 6 6 0 7
4 10 9 7 11 -7 9 21 -2 29 -4 3 -5 2 -2 -2z"/>
<path d="M5758 823 c7 -3 16 -2 19 1 4 3 -2 6 -13 5 -11 0 -14 -3 -6 -6z"/>
<path d="M5793 813 c0 -9 4 -10 14 -2 7 6 13 12 13 14 0 1 -6 2 -13 2 -8 0
-14 -6 -14 -14z"/>
<path d="M5466 638 c3 -4 9 -8 15 -8 5 0 9 4 9 8 0 5 -7 9 -15 9 -8 0 -12 -4
-9 -9z"/>
<path d="M1560 566 c0 -2 8 -10 18 -17 15 -13 16 -12 3 4 -13 16 -21 21 -21
13z"/>
<path d="M1570 515 c5 -7 6 -16 2 -21 -4 -5 -3 -5 2 -1 15 12 15 34 0 34 -9 0
-11 -4 -4 -12z"/>
<path d="M5182 463 c-10 -4 -8 -8 5 -18 17 -13 17 -14 1 -20 -10 -4 -18 -13
-18 -21 0 -16 16 -19 25 -4 3 6 11 10 16 10 6 0 8 -4 5 -8 -2 -4 5 -9 16 -9
20 -2 20 -1 2 13 -18 14 -18 14 1 8 16 -4 15 -2 -4 9 -15 9 -20 17 -12 21 6 4
11 13 11 19 0 7 -4 6 -10 -3 -6 -10 -10 -11 -10 -2 0 13 -6 14 -28 5z m28 -37
c0 -2 -8 -10 -17 -17 -16 -13 -17 -12 -4 4 13 16 21 21 21 13z"/>
<path d="M5240 445 c0 -8 4 -15 10 -15 5 0 7 7 4 15 -4 8 -8 15 -10 15 -2 0
-4 -7 -4 -15z"/>
<path d="M4984 358 c-10 -12 -13 -18 -5 -13 11 6 13 4 8 -9 -5 -14 -3 -15 13
-6 27 14 32 26 16 39 -10 8 -18 6 -32 -11z m30 -9 c-3 -5 -10 -7 -15 -3 -5 3
-7 10 -3 15 3 5 10 7 15 3 5 -3 7 -10 3 -15z"/>
<path d="M2194 255 c-5 -13 -9 -13 -22 -3 -8 7 -5 -4 9 -24 13 -20 26 -35 28
-32 3 2 -1 10 -7 16 -20 20 -13 32 8 13 11 -10 20 -13 20 -7 0 7 -5 12 -11 12
-5 0 -7 5 -3 12 4 7 3 8 -4 4 -7 -4 -12 -3 -12 3 0 5 6 12 13 14 9 4 9 6 -1 6
-7 1 -15 -6 -18 -14z"/>
<path d="M4839 233 c-13 -16 -12 -17 4 -4 16 13 21 21 13 21 -2 0 -10 -8 -17
-17z"/>
<path d="M4790 223 c0 -6 6 -15 12 -19 18 -11 48 -12 42 -2 -4 5 -12 7 -20 4
-7 -3 -18 3 -23 12 -6 9 -11 12 -11 5z"/>
<path d="M2146 201 c9 -9 34 -9 34 -1 0 5 -9 8 -20 7 -10 -1 -17 -3 -14 -6z"/>
<path d="M2850 71 c0 -7 -4 -9 -10 -6 -5 3 -10 1 -10 -4 0 -6 4 -11 9 -11 13
0 25 20 17 27 -3 4 -6 1 -6 -6z"/>
<path d="M2875 70 c-3 -5 -1 -10 4 -10 6 0 11 5 11 10 0 6 -2 10 -4 10 -3 0
-8 -4 -11 -10z"/>
<path d="M2985 71 c-3 -6 -12 -9 -18 -5 -7 3 -3 -2 7 -10 23 -18 48 -4 29 15
-8 8 -13 8 -18 0z"/>
<path d="M4005 61 c2 -9 4 -18 4 -21 1 -3 10 -6 21 -7 15 -1 19 4 16 19 -2 13
-11 22 -23 23 -14 1 -20 -4 -18 -14z"/>
<path d="M4123 48 c32 -33 32 -33 47 -12 8 12 22 19 30 17 13 -4 13 -3 0 6
-11 8 -19 6 -30 -10 -16 -20 -16 -20 -38 6 -12 14 -26 25 -31 25 -5 0 5 -15
22 -32z"/>
<path d="M2730 60 c0 -5 5 -10 11 -10 5 0 7 5 4 10 -3 6 -8 10 -11 10 -2 0 -4
-4 -4 -10z"/>
<path d="M2775 60 c-3 -5 -1 -10 4 -10 6 0 11 5 11 10 0 6 -2 10 -4 10 -3 0
-8 -4 -11 -10z"/>
<path d="M2860 39 c0 -5 5 -7 10 -4 6 3 10 8 10 11 0 2 -4 4 -10 4 -5 0 -10
-5 -10 -11z"/>
<path d="M2835 30 c-3 -5 -1 -10 4 -10 6 0 11 5 11 10 0 6 -2 10 -4 10 -3 0
-8 -4 -11 -10z"/>
<path d="M4175 19 c-4 -6 -4 -13 -1 -16 3 -4 6 -1 6 6 0 7 5 9 12 5 7 -4 8 -3
4 4 -9 15 -13 15 -21 1z"/>
<path d="M4210 19 c0 -5 5 -7 10 -4 6 3 10 8 10 11 0 2 -4 4 -10 4 -5 0 -10
-5 -10 -11z"/>
</g>
</svg>
